<mxfile host="app.diagrams.net" modified="2023-09-30T19:20:40.745Z" agent="Mozilla/5.0 (Windows NT 10.0; Win64; x64) AppleWebKit/537.36 (KHTML, like Gecko) Chrome/117.0.0.0 Safari/537.36" etag="mnfhkZJmWMqj6x0E00Rs" version="21.8.1" type="github">
  <diagram name="Página-1" id="8I4DDklmutxkgvSWZMni">
    <mxGraphModel dx="571" dy="1198" grid="1" gridSize="10" guides="1" tooltips="1" connect="1" arrows="1" fold="1" page="1" pageScale="1" pageWidth="827" pageHeight="1169" math="0" shadow="0">
      <root>
        <mxCell id="0" />
        <mxCell id="1" parent="0" />
        <mxCell id="er1J57owctwDWstpIgBk-1" value="Cliente" style="shape=umlActor;verticalLabelPosition=bottom;verticalAlign=top;html=1;" parent="1" vertex="1">
          <mxGeometry x="50" y="70" width="30" height="60" as="geometry" />
        </mxCell>
        <mxCell id="er1J57owctwDWstpIgBk-2" value="Profissional" style="shape=umlActor;verticalLabelPosition=bottom;verticalAlign=top;html=1;" parent="1" vertex="1">
          <mxGeometry x="50" y="210" width="30" height="60" as="geometry" />
        </mxCell>
        <mxCell id="er1J57owctwDWstpIgBk-3" value="Computador" style="verticalAlign=top;align=left;spacingTop=8;spacingLeft=2;spacingRight=12;shape=cube;size=10;direction=south;fontStyle=4;html=1;whiteSpace=wrap;" parent="1" vertex="1">
          <mxGeometry x="220" y="90" width="180" height="120" as="geometry" />
        </mxCell>
        <mxCell id="vAjRmLbvC4eP0aSUSoSZ-1" value="Dispositivo móvel" style="verticalAlign=top;align=left;spacingTop=8;spacingLeft=2;spacingRight=12;shape=cube;size=10;direction=south;fontStyle=4;html=1;whiteSpace=wrap;" vertex="1" parent="1">
          <mxGeometry x="200" y="250" width="180" height="120" as="geometry" />
        </mxCell>
        <mxCell id="vAjRmLbvC4eP0aSUSoSZ-2" value="Servidor de aplicação" style="verticalAlign=top;align=left;spacingTop=8;spacingLeft=2;spacingRight=12;shape=cube;size=10;direction=south;fontStyle=4;html=1;whiteSpace=wrap;" vertex="1" parent="1">
          <mxGeometry x="414" y="160" width="180" height="120" as="geometry" />
        </mxCell>
        <mxCell id="vAjRmLbvC4eP0aSUSoSZ-3" value="Servidor de banco de dados" style="verticalAlign=top;align=left;spacingTop=8;spacingLeft=2;spacingRight=12;shape=cube;size=10;direction=south;fontStyle=4;html=1;whiteSpace=wrap;" vertex="1" parent="1">
          <mxGeometry x="640" y="170" width="180" height="120" as="geometry" />
        </mxCell>
      </root>
    </mxGraphModel>
  </diagram>
</mxfile>
